<svg 
  version="1.2" 
  xmlns="http://www.w3.org/2000/svg" 
  viewBox="0 0 1080 1080" 
  width="64" 
  height="64"
>
  <style>
    .s0 { fill: #f59320 } 
    .s1 { fill: #000000 } 
  </style>

  <path id="Shape 1 copy" fill-rule="evenodd" class="s0" d="m540.25 1064.5c-289.91 0-524.25-234.34-524.25-524.25 0-289.91 234.34-524.25 524.25-524.25 289.91 0 524.25 234.34 524.25 524.25 0 289.91-234.34 524.25-524.25 524.25z"/>
  <path id="Path 0" class="s1" d="m243 254.31v26.21h49.65v-52.42h-49.65zm104.83 0v26.21h-52.42v52.41l53.8-0.01-1.38 52.43c100.48 0 129.65 0.93 129.66 2.06 0 1.14-34.14 36.21-75.87 77.94l-75.87 75.86v311.72l154.49-154.48 1.38-311.73c116.52-1.06 150.35-0.44 150.35 0.69 0 1.14-33.45 35.59-74.33 76.56-40.89 40.96-73.79 75.41-73.11 76.55 0.67 1.14 45.3 2.07 99.16 2.07h97.93v154.48h-198.62v154.48l200 0.01 153.09-153.11 0.01-155.86c-123.31 0-151.46-1-151.03-2.67 0.38-1.47 33.86-35.91 74.41-76.55 40.55-40.64 73.71-75.75 73.69-78.02-0.01-2.28-34.43-38.61-76.48-80.74l-76.45-76.61-332.41 0.1zm-104.83 104.83v26.21h49.65v-52.41h-49.65z"/>
</svg>
